<svg xmlns="http://www.w3.org/2000/svg" width="100" height="100" viewBox="0 0 100 100">
<g>
<path d="M 90.77 73.81 L 90.50 98.50 L 50.93 98.76 C29.16,98.91 11.05,98.72 10.68,98.34 C10.31,97.97 10.00,84.47 10.00,68.33 L 10.00 39.00 L 19.00 39.00 L 19.00 2.00 L 80.96 2.00 L 81.23 25.25 L 81.50 48.50 L 91.03 49.11 ZM 12.63 92.75 L 13.23 95.00 L 87.00 95.00 L 87.00 52.00 L 35.42 52.00 L 30.50 47.00 C25.65,42.08 25.48,42.00 19.42,42.00 L 13.27 42.00 L 12.64 46.64 C11.83,52.52 11.83,89.75 12.63,92.75 ZM 57.64 45.48 C61.38,48.85 61.75,48.95 69.75,48.98 L 78.00 49.00 L 78.00 5.00 L 22.00 5.00 L 22.00 39.00 L 24.88 39.00 C26.46,39.00 28.32,39.67 29.00,40.50 C29.98,41.68 32.77,42.00 42.01,42.00 L 53.78 42.00 ZM 72.00 22.50 C72.00,23.79 68.96,24.00 50.67,24.00 C38.93,24.00 29.03,23.70 28.67,23.33 C26.69,21.35 29.91,21.00 50.00,21.00 C68.89,21.00 72.00,21.21 72.00,22.50 ZM 72.00 28.50 C72.00,29.79 68.96,30.00 50.67,30.00 C38.93,30.00 29.03,29.70 28.67,29.33 C26.69,27.35 29.91,27.00 50.00,27.00 C68.89,27.00 72.00,27.21 72.00,28.50 ZM 72.00 34.50 C72.00,35.79 68.96,36.00 50.67,36.00 C38.93,36.00 29.03,35.70 28.67,35.33 C26.69,33.35 29.91,33.00 50.00,33.00 C68.89,33.00 72.00,33.21 72.00,34.50 ZM 55.05 78.75 C55.02,80.06 54.37,81.00 53.50,81.00 C52.30,81.00 52.00,79.50 52.00,73.50 L 52.00 66.00 L 55.52 66.00 C59.94,66.00 62.04,69.42 60.16,73.56 C59.35,75.32 59.30,76.70 60.00,77.99 C61.33,80.48 61.26,81.00 59.62,81.00 C58.86,81.00 57.54,79.99 56.67,78.75 L 55.10 76.50 ZM 69.00 15.50 C69.00,16.78 66.30,17.00 50.67,17.00 C40.58,17.00 32.05,16.71 31.69,16.36 C29.83,14.50 33.81,14.00 50.56,14.00 C66.28,14.00 69.00,14.22 69.00,15.50 ZM 70.00 79.50 C70.00,80.53 68.96,81.00 66.67,81.00 C62.35,81.00 62.00,80.55 62.01,75.08 C62.04,67.43 62.76,66.00 66.62,66.00 C68.96,66.00 70.00,66.46 70.00,67.50 C70.00,68.33 69.11,69.00 68.00,69.00 C66.89,69.00 66.00,69.67 66.00,70.50 C66.00,71.33 66.89,72.00 68.00,72.00 C69.11,72.00 70.00,72.67 70.00,73.50 C70.00,74.33 69.11,75.00 68.00,75.00 C66.89,75.00 66.00,75.67 66.00,76.50 C66.00,77.33 66.89,78.00 68.00,78.00 C69.11,78.00 70.00,78.67 70.00,79.50 ZM 29.18 78.50 C27.68,81.80 22.61,82.01 20.92,78.85 C19.84,76.82 19.95,76.74 22.89,77.33 C25.25,77.80 26.00,77.59 26.00,76.47 C26.00,75.66 25.39,75.00 24.65,75.00 C23.09,75.00 20.00,71.84 20.00,70.24 C20.00,66.24 27.17,64.59 29.08,68.15 C30.16,70.18 30.05,70.26 27.11,69.67 C24.75,69.20 24.00,69.41 24.00,70.53 C24.00,71.34 24.61,72.00 25.35,72.00 C26.08,72.00 27.51,72.90 28.50,74.00 C30.00,75.66 30.12,76.44 29.18,78.50 ZM 39.00 79.50 C39.00,80.53 37.96,81.00 35.67,81.00 C33.83,81.00 32.03,80.70 31.67,80.33 C31.30,79.97 31.00,76.59 31.00,72.83 L 31.00 66.00 L 35.00 66.00 C37.89,66.00 39.00,66.42 39.00,67.50 C39.00,68.45 38.05,69.00 36.42,69.00 C33.28,69.00 33.63,71.35 36.83,71.82 C39.89,72.27 39.61,75.00 36.50,75.00 C34.94,75.00 34.00,75.57 34.00,76.50 C34.00,77.43 34.94,78.00 36.50,78.00 C38.06,78.00 39.00,78.57 39.00,79.50 ZM 48.80 79.80 C48.14,80.46 46.65,81.00 45.50,81.00 C42.20,81.00 41.00,79.00 41.00,73.50 C41.00,70.69 41.54,67.86 42.20,67.20 C44.10,65.30 47.82,65.79 49.05,68.10 C50.11,70.07 49.99,70.16 47.09,69.52 L 44.00 68.84 L 44.00 73.40 C44.00,77.92 44.02,77.95 47.00,77.35 C50.12,76.73 50.86,77.74 48.80,79.80 ZM 78.00 75.00 C78.00,79.67 77.67,81.00 76.50,81.00 C75.33,81.00 75.00,79.67 75.00,75.00 C75.00,70.33 74.67,69.00 73.50,69.00 C72.68,69.00 72.00,68.32 72.00,67.50 C72.00,66.45 73.06,66.00 75.50,66.00 C77.43,66.00 79.34,65.98 79.75,65.95 C80.16,65.92 80.65,66.59 80.82,67.45 C81.01,68.33 80.47,69.00 79.57,69.00 C78.32,69.00 78.00,70.21 78.00,75.00 ZM 35.50 47.00 C35.84,47.55 40.23,48.00 45.26,48.00 C52.05,48.00 54.11,47.71 53.27,46.87 C52.09,45.69 49.05,45.44 40.19,45.79 C36.95,45.92 35.12,46.39 35.50,47.00 ZM 84.26 59.11 C83.68,61.35 81.00,61.67 81.00,59.50 C81.00,58.67 80.32,58.00 79.50,58.00 C78.66,58.00 78.00,57.11 78.00,55.98 C78.00,54.28 78.44,54.07 80.75,54.63 C84.04,55.44 84.92,56.57 84.26,59.11 ZM 19.00 59.50 C19.00,60.33 18.33,61.00 17.50,61.00 C16.00,55.33 16.33,55.00 19.00,55.00 C22.00,57.33 21.33,58.00 20.50,58.00 C19.67,58.00 19.00,58.67 19.00,59.50 ZM 75.00 11.00 C72.68,14.00 72.00,13.32 72.00,12.50 C72.00,11.68 71.32,11.00 70.50,11.00 C69.68,11.00 69.00,10.32 69.00,9.50 C74.67,8.00 75.00,8.33 75.00,11.00 ZM 22.00 90.50 C16.33,92.00 16.00,91.67 16.00,89.00 C18.33,86.00 19.00,86.68 19.00,87.50 C19.00,88.32 19.67,89.00 20.50,89.00 C21.33,89.00 22.00,89.68 22.00,90.50 ZM 84.00 89.00 C84.00,91.67 83.67,92.00 81.00,92.00 C78.00,89.68 78.68,89.00 79.50,89.00 C80.32,89.00 81.00,88.32 81.00,87.50 C81.00,86.68 81.68,86.00 82.50,86.00 ZM 28.00 12.50 C28.00,13.32 27.30,14.00 26.43,14.00 C25.31,14.00 24.96,13.21 25.18,11.25 C25.43,9.09 26.09,8.43 28.25,8.18 C30.21,7.96 31.00,8.31 31.00,9.43 C31.00,10.30 30.33,11.00 29.50,11.00 C28.67,11.00 28.00,11.68 28.00,12.50 ZM 66.00 9.50 C66.00,10.32 65.32,11.00 64.50,11.00 C63.67,11.00 63.00,10.32 63.00,9.50 C63.00,8.68 63.67,8.00 64.50,8.00 C65.32,8.00 66.00,8.68 66.00,9.50 ZM 75.00 56.50 C75.00,57.33 74.32,58.00 73.50,58.00 C72.68,58.00 72.00,57.33 72.00,56.50 C72.00,55.67 72.68,55.00 73.50,55.00 C74.32,55.00 75.00,55.67 75.00,56.50 ZM 55.00 71.00 C55.00,72.29 55.51,73.00 56.25,72.75 C56.94,72.52 57.50,71.73 57.50,71.00 C57.50,70.27 56.94,69.48 56.25,69.25 C55.51,69.00 55.00,69.71 55.00,71.00 Z" fill="rgb(26,7,6)"/>
<path d="M 12.63 92.75 C11.83,89.75 11.83,52.52 12.64,46.64 L 13.27 42.00 L 19.42 42.00 C25.48,42.00 25.65,42.08 30.50,47.00 L 35.42 52.00 L 87.00 52.00 L 87.00 95.00 L 13.23 95.00 ZM 55.05 78.75 L 55.10 76.50 L 56.67 78.75 C57.54,79.99 58.86,81.00 59.62,81.00 C61.26,81.00 61.33,80.48 60.00,77.99 C59.30,76.70 59.35,75.32 60.16,73.56 C62.04,69.42 59.94,66.00 55.52,66.00 L 52.00 66.00 L 52.00 73.50 C52.00,79.50 52.30,81.00 53.50,81.00 C54.37,81.00 55.02,80.06 55.05,78.75 ZM 70.00 79.50 C70.00,78.67 69.11,78.00 68.00,78.00 C66.89,78.00 66.00,77.33 66.00,76.50 C66.00,75.67 66.89,75.00 68.00,75.00 C69.11,75.00 70.00,74.33 70.00,73.50 C70.00,72.67 69.11,72.00 68.00,72.00 C66.89,72.00 66.00,71.33 66.00,70.50 C66.00,69.67 66.89,69.00 68.00,69.00 C69.11,69.00 70.00,68.33 70.00,67.50 C70.00,66.46 68.96,66.00 66.62,66.00 C62.76,66.00 62.04,67.43 62.01,75.08 C62.00,80.55 62.35,81.00 66.67,81.00 C68.96,81.00 70.00,80.53 70.00,79.50 ZM 29.18 78.50 C30.12,76.44 30.00,75.66 28.50,74.00 C27.51,72.90 26.08,72.00 25.35,72.00 C24.61,72.00 24.00,71.34 24.00,70.53 C24.00,69.41 24.75,69.20 27.11,69.67 C30.05,70.26 30.16,70.18 29.08,68.15 C27.17,64.59 20.00,66.24 20.00,70.24 C20.00,71.84 23.09,75.00 24.65,75.00 C25.39,75.00 26.00,75.66 26.00,76.47 C26.00,77.59 25.25,77.80 22.89,77.33 C19.95,76.74 19.84,76.82 20.92,78.85 C22.61,82.01 27.68,81.80 29.18,78.50 ZM 39.00 79.50 C39.00,78.57 38.06,78.00 36.50,78.00 C34.94,78.00 34.00,77.43 34.00,76.50 C34.00,75.57 34.94,75.00 36.50,75.00 C39.61,75.00 39.89,72.27 36.83,71.82 C33.63,71.35 33.28,69.00 36.42,69.00 C38.05,69.00 39.00,68.45 39.00,67.50 C39.00,66.42 37.89,66.00 35.00,66.00 L 31.00 66.00 L 31.00 72.83 C31.00,76.59 31.30,79.97 31.67,80.33 C32.03,80.70 33.83,81.00 35.67,81.00 C37.96,81.00 39.00,80.53 39.00,79.50 ZM 48.80 79.80 C50.86,77.74 50.12,76.73 47.00,77.35 C44.02,77.95 44.00,77.92 44.00,73.40 L 44.00 68.84 L 47.09 69.52 C49.99,70.16 50.11,70.07 49.05,68.10 C47.82,65.79 44.10,65.30 42.20,67.20 C41.54,67.86 41.00,70.69 41.00,73.50 C41.00,79.00 42.20,81.00 45.50,81.00 C46.65,81.00 48.14,80.46 48.80,79.80 ZM 78.00 75.00 C78.00,70.21 78.32,69.00 79.57,69.00 C80.47,69.00 81.01,68.33 80.82,67.45 C80.65,66.59 80.16,65.92 79.75,65.95 C79.34,65.98 77.43,66.00 75.50,66.00 C73.06,66.00 72.00,66.45 72.00,67.50 C72.00,68.32 72.68,69.00 73.50,69.00 C74.67,69.00 75.00,70.33 75.00,75.00 C75.00,79.67 75.33,81.00 76.50,81.00 C77.67,81.00 78.00,79.67 78.00,75.00 ZM 35.50 47.00 C35.12,46.39 36.95,45.92 40.19,45.79 C49.05,45.44 52.09,45.69 53.27,46.87 C54.11,47.71 52.05,48.00 45.26,48.00 C40.23,48.00 35.84,47.55 35.50,47.00 ZM 84.26 59.11 C84.92,56.57 84.04,55.44 80.75,54.63 C78.44,54.07 78.00,54.28 78.00,55.98 C78.00,57.11 78.66,58.00 79.50,58.00 C80.32,58.00 81.00,58.67 81.00,59.50 C81.00,61.67 83.68,61.35 84.26,59.11 ZM 19.00 59.50 C19.00,58.67 19.67,58.00 20.50,58.00 C21.33,58.00 22.00,57.33 22.00,56.50 C16.33,55.00 16.00,55.33 16.00,58.00 C18.33,61.00 19.00,60.33 19.00,59.50 ZM 22.00 90.50 C22.00,89.68 21.33,89.00 20.50,89.00 C19.67,89.00 19.00,88.32 19.00,87.50 C19.00,86.68 18.33,86.00 17.50,86.00 C16.00,91.67 16.33,92.00 19.00,92.00 ZM 84.00 89.00 C81.68,86.00 81.00,86.68 81.00,87.50 C81.00,88.32 80.32,89.00 79.50,89.00 C78.68,89.00 78.00,89.68 78.00,90.50 C83.67,92.00 84.00,91.67 84.00,89.00 ZM 75.00 56.50 C75.00,55.67 74.32,55.00 73.50,55.00 C72.68,55.00 72.00,55.67 72.00,56.50 C72.00,57.33 72.68,58.00 73.50,58.00 C74.32,58.00 75.00,57.33 75.00,56.50 ZM 55.00 71.00 C55.00,69.71 55.51,69.00 56.25,69.25 C56.94,69.48 57.50,70.27 57.50,71.00 C57.50,71.73 56.94,72.52 56.25,72.75 C55.51,73.00 55.00,72.29 55.00,71.00 Z" fill="rgb(188,59,50)"/>
<path d="M 0.00 50.00 L 0.00 0.00 L 50.00 0.00 L 100.00 0.00 L 100.00 50.00 L 100.00 100.00 L 50.00 100.00 L 0.00 100.00 L 0.00 50.00 ZM 90.77 73.81 L 91.03 49.11 L 86.27 48.81 L 81.50 48.50 L 81.23 25.25 L 80.96 2.00 L 49.98 2.00 L 19.00 2.00 L 19.00 20.50 L 19.00 39.00 L 14.50 39.00 L 10.00 39.00 L 10.00 68.33 C10.00,84.47 10.31,97.97 10.68,98.34 C11.05,98.72 29.16,98.91 50.93,98.76 L 90.50 98.50 L 90.77 73.81 ZM 57.64 45.48 L 53.78 42.00 L 42.01 42.00 C32.77,42.00 29.98,41.68 29.00,40.50 C28.32,39.67 26.46,39.00 24.88,39.00 L 22.00 39.00 L 22.00 22.00 L 22.00 5.00 L 50.00 5.00 L 78.00 5.00 L 78.00 27.00 L 78.00 49.00 L 69.75 48.98 C61.75,48.95 61.38,48.85 57.64,45.48 ZM 72.00 34.50 C72.00,33.21 68.89,33.00 50.00,33.00 C29.91,33.00 26.69,33.35 28.67,35.33 C29.03,35.70 38.93,36.00 50.67,36.00 C68.96,36.00 72.00,35.79 72.00,34.50 ZM 72.00 28.50 C72.00,27.21 68.89,27.00 50.00,27.00 C29.91,27.00 26.69,27.35 28.67,29.33 C29.03,29.70 38.93,30.00 50.67,30.00 C68.96,30.00 72.00,29.79 72.00,28.50 ZM 72.00 22.50 C72.00,21.21 68.89,21.00 50.00,21.00 C29.91,21.00 26.69,21.35 28.67,23.33 C29.03,23.70 38.93,24.00 50.67,24.00 C68.96,24.00 72.00,23.79 72.00,22.50 ZM 69.00 15.50 C69.00,14.22 66.28,14.00 50.56,14.00 C33.81,14.00 29.83,14.50 31.69,16.36 C32.05,16.71 40.58,17.00 50.67,17.00 C66.30,17.00 69.00,16.78 69.00,15.50 ZM 28.00 12.50 C28.00,11.68 28.67,11.00 29.50,11.00 C30.33,11.00 31.00,10.30 31.00,9.43 C31.00,8.31 30.21,7.96 28.25,8.18 C26.09,8.43 25.43,9.09 25.18,11.25 C24.96,13.21 25.31,14.00 26.43,14.00 C27.30,14.00 28.00,13.32 28.00,12.50 ZM 75.00 11.00 C75.00,8.33 74.67,8.00 72.00,8.00 C70.00,8.00 69.00,8.50 69.00,9.50 C69.00,10.32 69.68,11.00 70.50,11.00 C71.32,11.00 72.00,11.68 72.00,12.50 C72.00,13.32 72.68,14.00 73.50,14.00 C74.50,14.00 75.00,13.00 75.00,11.00 ZM 66.00 9.50 C66.00,8.68 65.32,8.00 64.50,8.00 C63.67,8.00 63.00,8.68 63.00,9.50 C63.00,10.32 63.67,11.00 64.50,11.00 C65.32,11.00 66.00,10.32 66.00,9.50 Z" fill="rgb(243,243,243)"/>
</g>
</svg>